<?xml version="1.0" encoding="UTF-8" standalone="no"?>
<!-- Created with Inkscape (http://www.inkscape.org/) -->

<svg
   xmlns:dc="http://purl.org/dc/elements/1.1/"
   xmlns:cc="http://creativecommons.org/ns#"
   xmlns:rdf="http://www.w3.org/1999/02/22-rdf-syntax-ns#"
   xmlns:svg="http://www.w3.org/2000/svg"
   xmlns="http://www.w3.org/2000/svg"
   xmlns:sodipodi="http://sodipodi.sourceforge.net/DTD/sodipodi-0.dtd"
   xmlns:inkscape="http://www.inkscape.org/namespaces/inkscape"
   width="824.09003"
   height="456"
   id="svg2"
   version="1.1"
   inkscape:version="0.48.1 "
   sodipodi:docname="Latin_ligatures_(part_1).svg">
  <defs
     id="defs4" />
  <sodipodi:namedview
     id="base"
     pagecolor="#ffffff"
     bordercolor="#666666"
     borderopacity="1.0"
     inkscape:pageopacity="0.0"
     inkscape:pageshadow="2"
     inkscape:zoom="0.50420566"
     inkscape:cx="302.89125"
     inkscape:cy="282.65411"
     inkscape:document-units="px"
     inkscape:current-layer="svg2"
     showgrid="false"
     inkscape:window-width="1152"
     inkscape:window-height="815"
     inkscape:window-x="-4"
     inkscape:window-y="-4"
     inkscape:window-maximized="1"
     inkscape:showpageshadow="true"
     showborder="true" />
  <metadata
     id="metadata7">
    <rdf:RDF>
      <cc:Work
         rdf:about="">
        <dc:format>image/svg+xml</dc:format>
        <dc:type
           rdf:resource="http://purl.org/dc/dcmitype/StillImage" />
        <dc:title></dc:title>
      </cc:Work>
    </rdf:RDF>
  </metadata>
  <g
     inkscape:label="Layer 1"
     inkscape:groupmode="layer"
     id="layer1"
     transform="translate(0, -596.362)">
    <g
       transform="translate(614.173, 854.697)"
       style="font-size: 10px; font-style: normal; font-variant: normal; font-weight: normal; font-stretch: normal; text-align: start; line-height: 125%; letter-spacing: 0px; word-spacing: 0px; text-anchor: start; fill: rgb(0, 0, 0); fill-opacity: 1; stroke: none; font-family: Palatino Linotype;"
       id="flowRoot2990">
      <path
         d="M 187.94434,63.733794 185.625,73.9877 l -0.97656,1.098633 c -4.15057,-0.08128 -8.74855,-0.121975 -13.79395,-0.122071 -4.55745,9.6e-5 -10.41682,0.04079 -17.57812,0.122071 l -0.73242,49.682617 c -1.6e-4,12.36983 0.34571,20.24335 1.03759,23.62061 0.69158,3.37729 2.27849,5.92042 4.76075,7.62939 2.48193,1.709 5.83886,2.56349 10.0708,2.56348 5.4523,1e-5 10.49787,-1.42414 15.13671,-4.27246 l 2.92969,4.39453 c -1.95331,1.38347 -6.63266,5.45248 -14.03808,12.20703 -4.23194,1.95312 -8.54509,2.92968 -12.93946,2.92969 -18.31068,-1e-5 -27.46595,-8.87044 -27.46582,-26.61133 l 0.61035,-20.87403 0,-50.659176 -5.00488,0 c -3.66223,9.6e-5 -7.85331,0.162856 -12.57324,0.488281 l -1.09863,-0.976562 0,-3.173828 0.85449,-1.220703 c 7.16134,-2.685444 13.50899,-5.452369 19.04297,-8.300782 l 0,-13.671875 c -1.3e-4,-3.173702 0.12194,-8.34134 0.36621,-15.502929 l 0.48828,-8.911133 c -10.57955,-4.882661 -17.39514,-7.812346 -20.44678,-8.789063 -3.05186,-0.976406 -6.53087,-1.464686 -10.43701,-1.464843 -6.673272,1.57e-4 -12.308845,2.746736 -16.906738,8.239746 -4.598062,5.493307 -6.89705,11.861302 -6.896972,19.104004 -7.8e-5,8.463662 3.499267,16.194774 10.498047,23.193359 -0.162849,4.964294 -0.244229,8.82985 -0.244141,11.59668 -8.8e-5,2.685639 0.08129,6.429125 0.244141,11.230469 l -1.098633,1.098632 -4.882813,0 -1.098633,-1.098632 c -0.325601,-4.719964 -0.691812,-8.015859 -1.098632,-9.887696 -0.406981,-1.871649 -1.790443,-4.068913 -4.150391,-6.591797 -2.3601,-2.522684 -5.55427,-4.597877 -9.58252,-6.225586 -4.028382,-1.627496 -8.687395,-2.441297 -13.97705,-2.441406 -6.673223,1.09e-4 -12.308797,1.810817 -16.906739,5.432129 -4.598012,3.621519 -6.897001,8.361911 -6.896972,14.221191 -2.9e-5,9.033284 5.289679,14.851963 15.86914,17.456055 l 13.305664,3.417965 c 10.823499,2.767 18.758062,5.06598 23.803711,6.89698 5.045486,1.83111 8.992423,4.78114 11.840821,8.85009 2.848211,4.06906 4.272363,9.27739 4.272461,15.625 -9.8e-5,12.12568 -4.882906,21.99302 -14.648438,29.60205 -9.765698,7.60905 -21.443747,11.41357 -35.03418,11.41358 -11.474646,-1e-5 -24.332706,-1.83106 -38.574218,-5.49316 l -0.610352,-1.58692 1.220703,-8.17871 c 0.569651,-3.82485 0.895171,-11.75942 0.976563,-23.80371 l 1.098633,-1.09863 5.249023,0 1.098633,1.09863 c 0.162741,6.83596 0.569642,12.69533 1.220703,17.57812 2.604144,3.82489 6.998671,6.93768 13.183594,9.33838 6.184856,2.40072 12.247676,3.60108 18.188476,3.60108 5.615178,0 10.579365,-1.0376 14.892578,-3.1128 4.313081,-2.07518 7.649666,-4.84211 10.009766,-8.30078 2.359948,-3.45864 3.539959,-7.5073 3.540039,-12.14599 -8e-5,-3.41794 -0.895261,-6.38832 -2.685547,-8.91114 -1.79044,-2.52274 -4.394604,-4.59794 -7.8125,-6.22558 -3.418034,-1.62756 -10.457415,-3.70275 -21.118164,-6.22559 l -13.427734,-3.17383 c -3.418,-0.89512 -7.059761,-2.52273 -10.925293,-4.88281 -3.86558,-2.35996 -6.89699,-5.57448 -9.094239,-9.64355 -2.197278,-4.06894 -3.295909,-8.91106 -3.295898,-14.52637 -1.1e-5,-11.067616 4.353826,-19.836325 13.061523,-26.306153 8.70765,-6.469612 19.490516,-9.704472 32.348633,-9.704589 5.859313,1.17e-4 12.003512,0.813918 18.432617,2.441406 -3.25528,-7.730997 -4.882882,-14.607618 -4.882812,-20.629883 -7e-5,-10.00962 3.072029,-18.676603 9.216309,-26.0009765 6.14412,-7.3240498 13.651436,-10.9861555 22.521971,-10.9863281 6.75445,1.726e-4 14.16004,2.9705472 22.2168,8.9111328 8.13789,5.9409128 15.01451,8.9112878 20.62988,8.9111328 2.60402,1.55e-4 6.06268,-1.546068 10.37598,-4.638672 l 2.19726,1.708985 c -3.17398,13.346498 -5.24917,30.070114 -6.22558,50.170898 4.06885,0.08149 8.46338,0.122178 13.18359,0.12207 9.60269,1.08e-4 16.47931,-0.244033 20.62988,-0.732422 z"
         style="font-size: 250px;"
         id="path3124" />
    </g>
    <g
       transform="translate(-37.8851, 855.389)"
       style="font-size: 10px; font-style: normal; font-variant: normal; font-weight: normal; font-stretch: normal; text-align: start; line-height: 125%; letter-spacing: 0px; word-spacing: 0px; text-anchor: start; fill: rgb(0, 0, 0); fill-opacity: 1; stroke: none; font-family: Palatino Linotype;"
       id="flowRoot2990-1">
      <path
         d="m 170.12207,63.001372 0,-7.324219 c -1.1e-4,-10.253781 0.61025,-17.598337 1.83105,-22.033691 1.2206,-4.43508 3.09234,-8.402361 5.61524,-11.901856 2.52267,-3.499196 7.34444,-8.93132 14.46533,-16.2963866 7.12064,-7.3647359 12.34931,-11.7592628 15.68604,-13.1835938 3.33644,-1.4239734 6.83578,-2.1360496 10.49804,-2.1362305 3.33643,1.809e-4 6.67302,0.6105319 10.00977,1.8310547 l 0,20.0195312 -2.80762,1.098633 c -4.55745,-4.0688485 -9.84715,-6.1033517 -15.86914,-6.1035157 -4.23191,1.64e-4 -7.89402,0.8750004 -10.98633,2.6245117 -3.09258,1.749834 -5.20846,4.598139 -6.34765,8.544922 -1.13945,3.947089 -1.70911,10.477844 -1.70899,19.592285 l 0,25.268555 13.06153,0 c 6.75441,1.08e-4 13.10206,-0.244033 19.04296,-0.732422 l 1.22071,1.342773 -2.19727,10.742188 -1.09863,1.220703 c -2.44156,-0.08128 -4.02847,-0.121975 -4.76074,-0.12207 l -15.99121,-0.122071 -9.27735,0 0,49.194337 c -1.2e-4,2.60421 0.18298,8.5653 0.54932,17.8833 0.36608,9.31805 0.71195,14.79087 1.0376,16.41846 0.32539,1.62761 0.87471,2.80762 1.64795,3.54004 0.77298,0.73243 2.03437,1.2614 3.78418,1.58691 1.74954,0.32553 7.34442,0.61036 16.78466,0.85449 l 0.97657,0.97656 0,5.12696 -0.97657,1.09863 c -2.52293,0 -7.28367,-0.16276 -14.28222,-0.48828 -6.34779,-0.32552 -12.89889,-0.48828 -19.65332,-0.48828 -9.35883,0 -19.16514,0.32552 -29.41895,0.97656 l -0.97656,-1.09863 0,-5.12696 0.97656,-0.97656 c 7.89379,-0.48827 12.36969,-0.85448 13.42774,-1.09863 1.05784,-0.24413 1.95302,-0.75276 2.68554,-1.52588 0.73232,-0.7731 1.24095,-1.95311 1.52588,-3.54004 0.28473,-1.5869 0.61025,-6.83592 0.97656,-15.74707 0.36611,-8.91109 0.54921,-15.6453 0.54932,-20.20264 l 0,-47.363277 -59.08203,0 0,49.194337 c -5e-5,2.60421 0.18306,8.5653 0.54932,17.8833 0.36616,9.31805 0.71202,14.79087 1.03759,16.41846 0.32548,1.62761 0.87479,2.80762 1.64795,3.54004 0.77306,0.73243 2.03446,1.2614 3.78418,1.58691 1.74962,0.32553 6.32725,0.61036 13.73291,0.85449 l 0.97656,0.97656 0,5.12696 -0.97656,1.09863 c -3.09251,-0.16276 -7.32428,-0.36621 -12.69531,-0.61035 -5.37114,-0.24414 -11.43396,-0.36621 -18.18848,-0.36621 -8.789087,0 -18.595392,0.32552 -29.418942,0.97656 l -0.976563,-1.09863 0,-5.12696 0.976563,-0.97656 c 7.893865,-0.48827 12.369772,-0.85448 13.427734,-1.09863 1.057921,-0.24413 1.953103,-0.75276 2.685547,-1.52588 0.732398,-0.7731 1.241024,-1.95311 1.525879,-3.54004 0.284806,-1.5869 0.610326,-6.83592 0.976562,-15.74707 0.366185,-8.91109 0.549291,-15.6453 0.549317,-20.20264 l 0,-47.119136 -15.74707,0.854492 -1.098633,-0.976562 0,-3.051758 0.854492,-1.220703 15.991211,-8.178711 0,-7.324219 c -2.6e-5,-8.137897 0.366184,-14.302442 1.098633,-18.493652 0.732394,-4.190943 2.095511,-8.056499 4.089355,-11.59668 1.993782,-3.53989 5.472785,-8.015797 10.437015,-13.427734 4.96414,-5.41162 9.31798,-9.8468369 13.06152,-13.3056645 3.74343,-3.4584832 6.99864,-5.7778168 9.76563,-6.9580078 2.76686,-1.1798327 6.02206,-1.7698387 9.76562,-1.7700196 3.09237,1.809e-4 6.42896,0.6105319 10.00977,1.8310547 l -0.12207,20.0195312 -2.80762,1.098633 c -4.55737,-4.0688485 -9.84708,-6.1033517 -15.86914,-6.1035157 -4.23183,1.64e-4 -7.89394,0.8750004 -10.98633,2.6245117 -3.0925,1.749834 -5.20838,4.598139 -6.34766,8.544922 -1.13937,3.947089 -1.70903,10.477844 -1.70898,19.592285 l 0,25.268555 z"
         style="font-size: 250px;"
         id="path3115" />
    </g>
    <g
       transform="translate(178.825, 857.147)"
       style="font-size: 10px; font-style: normal; font-variant: normal; font-weight: normal; font-stretch: normal; text-align: start; line-height: 125%; letter-spacing: 0px; word-spacing: 0px; text-anchor: start; fill: rgb(0, 0, 0); fill-opacity: 1; stroke: none; font-family: Palatino Linotype;"
       id="flowRoot2990-1-9">
      <path
         d="m 111.04004,63.001372 30.27344,0 c 10.3352,1.08e-4 18.65631,-0.589898 24.96338,-1.77002 6.30685,-1.179902 13.73279,-3.35682 22.27783,-6.530762 l 2.19726,1.586915 c -0.81392,10.660911 -1.22083,24.210702 -1.2207,40.649414 l 0,27.587891 c -1.3e-4,1.79041 0.16264,7.54805 0.48828,17.27295 0.3254,9.72495 0.67126,15.40122 1.0376,17.02881 0.36608,1.62761 0.9154,2.80762 1.64795,3.54004 0.73229,0.73243 1.62747,1.20036 2.68554,1.4038 1.05782,0.20346 5.45234,0.54933 13.1836,1.0376 l 1.09863,0.97656 0,5.12696 -1.09863,1.09863 c -10.09128,-0.65104 -19.8569,-0.97656 -29.29688,-0.97656 -8.78916,0 -18.55478,0.32552 -29.29687,0.97656 l -1.09863,-1.09863 0,-5.12696 1.09863,-0.97656 c 7.81241,-0.48827 12.24762,-0.85448 13.30566,-1.09863 1.05785,-0.24413 1.97337,-0.75276 2.74658,-1.52588 0.77301,-0.7731 1.30199,-1.95311 1.58692,-3.54004 0.28473,-1.5869 0.5899,-6.83592 0.91553,-15.74707 0.32541,-8.91109 0.48817,-15.6453 0.48828,-20.20264 l 0,-24.047847 c -1.1e-4,-3.336513 -0.16287,-8.260011 -0.48828,-14.770508 -0.32563,-6.510323 -0.73253,-10.050358 -1.22071,-10.620117 -0.48838,-0.569563 -1.15977,-1.078189 -2.01416,-1.525879 -0.85459,-0.447491 -4.33359,-0.671287 -10.43701,-0.671387 l -11.84082,0.122071 -0.73242,3.540039 -1.2207,0.610351 -30.0293,0 0,49.194337 c -5e-5,2.60421 0.18306,8.5653 0.54932,17.8833 0.36616,9.31805 0.71202,14.79087 1.03759,16.41846 0.32548,1.62761 0.87479,2.80762 1.64795,3.54004 0.77306,0.73243 2.03446,1.2614 3.78418,1.58691 1.74962,0.32553 6.32725,0.61036 13.73291,0.85449 l 0.97656,0.97656 0,5.12696 -0.97656,1.09863 c -2.68561,-0.0814 -6.4291,-0.24414 -11.23047,-0.48828 -6.3477,-0.32552 -12.8988,-0.48828 -19.65332,-0.48828 -8.789087,0 -18.595392,0.32552 -29.418942,0.97656 l -0.976563,-1.09863 0,-5.12696 0.976563,-0.97656 c 7.893865,-0.48827 12.369772,-0.85448 13.427734,-1.09863 1.057921,-0.24413 1.953103,-0.75276 2.685547,-1.52588 0.732398,-0.7731 1.241024,-1.95311 1.525879,-3.54004 0.284806,-1.5869 0.610326,-6.83592 0.976562,-15.74707 0.366185,-8.91109 0.549291,-15.6453 0.549317,-20.20264 l 0,-47.119136 -15.74707,0.854492 -1.098633,-0.976562 0,-3.051758 0.854492,-1.220703 15.991211,-8.178711 0,-7.324219 c -2.6e-5,-8.137897 0.366184,-14.302442 1.098633,-18.493652 0.732394,-4.190943 2.095511,-8.056499 4.089355,-11.59668 1.993782,-3.53989 5.472785,-8.015797 10.437015,-13.427734 4.96414,-5.41162 9.31798,-9.8468369 13.06152,-13.3056645 3.74343,-3.4584832 6.99864,-5.7778168 9.76563,-6.9580078 2.76686,-1.1798327 6.02206,-1.7698387 9.76562,-1.7700196 3.09237,1.809e-4 6.42896,0.6105319 10.00977,1.8310547 l -0.12207,20.0195312 -2.80762,1.098633 c -4.55737,-4.0688485 -9.84708,-6.1033517 -15.86914,-6.1035157 -4.23183,1.64e-4 -7.89394,0.8750004 -10.98633,2.6245117 -3.0925,1.749834 -5.20838,4.598139 -6.34766,8.544922 -1.13937,3.947089 -1.70903,10.477844 -1.70898,19.592285 z M 178.17871,0.13516077 c 3.74337,1.7089e-4 6.95789,1.32259793 9.64356,3.96728513 2.68542,2.6450211 4.02819,5.9205711 4.02832,9.8266601 -1.3e-4,3.743643 -1.32256,6.958158 -3.96729,9.643555 -2.64498,2.685691 -5.87984,4.028464 -9.70459,4.02832 -3.82498,1.44e-4 -7.08018,-1.322284 -9.76562,-3.967285 -2.68565,-2.644707 -4.02842,-5.879567 -4.02832,-9.70459 -1e-4,-3.824709 1.36301,-7.0799139 4.08935,-9.7656249 2.72613,-2.6853773 5.96099,-4.02814944 9.70459,-4.02832033 z"
         style="font-size: 250px;"
         id="path3118" />
    </g>
    <g
       transform="translate(375.991, 858.157)"
       style="font-size: 10px; font-style: normal; font-variant: normal; font-weight: normal; font-stretch: normal; text-align: start; line-height: 125%; letter-spacing: 0px; word-spacing: 0px; text-anchor: start; fill: rgb(0, 0, 0); fill-opacity: 1; stroke: none; font-family: Palatino Linotype;"
       id="flowRoot2990-1-9-2">
      <path
         d="m 111.04004,63.001372 13.06152,0 c 6.75449,1.08e-4 13.14283,-0.244033 19.16504,-0.732422 l 1.09863,1.342773 -2.19726,10.742188 -1.09863,1.220703 c -2.44148,-0.08128 -4.0284,-0.121975 -4.76075,-0.12207 l -15.86914,-0.122071 -9.39941,0 0,49.194337 c -5e-5,2.60421 0.18306,8.5653 0.54932,17.8833 0.36616,9.31805 0.71202,14.79087 1.03759,16.41846 0.32548,1.62761 0.87479,2.80762 1.64795,3.54004 0.77306,0.73243 2.03446,1.2614 3.78418,1.58691 1.74962,0.32553 6.32725,0.61036 13.73291,0.85449 l 0.97656,0.97656 0,5.12696 -0.97656,1.09863 c -3.66217,-0.16276 -8.21946,-0.36621 -13.67187,-0.61035 -4.7201,-0.24414 -10.4574,-0.36621 -17.21192,-0.36621 -8.789087,0 -18.595392,0.32552 -29.418942,0.97656 l -0.976563,-1.09863 0,-5.12696 0.976563,-0.97656 c 7.893865,-0.48827 12.369772,-0.85448 13.427734,-1.09863 1.057921,-0.24413 1.953103,-0.75276 2.685547,-1.52588 0.732398,-0.7731 1.241024,-1.95311 1.525879,-3.54004 0.284806,-1.5869 0.610326,-6.83592 0.976562,-15.74707 0.366185,-8.91109 0.549291,-15.6453 0.549317,-20.20264 l 0,-47.119136 -15.74707,0.854492 -1.098633,-0.976562 0,-3.051758 0.854492,-1.220703 15.991211,-8.178711 0,-7.324219 c -2.6e-5,-8.137897 0.366184,-14.302442 1.098633,-18.493652 0.732394,-4.190943 2.075166,-8.056499 4.02832,-11.59668 1.953092,-3.53989 5.45244,-8.036142 10.49805,-13.48877 5.04552,-5.4523092 9.44005,-9.8875261 13.18359,-13.3056637 3.74343,-3.4177931 6.99864,-5.7167816 9.76563,-6.8969726 2.76686,-1.1798327 5.81861,-1.7698387 9.15527,-1.7700196 3.25513,1.809e-4 7.56828,0.6105319 12.93945,1.8310547 l 0,7.20214847 c 14.72972,-1.70881077 27.42502,-4.67918547 38.08594,-8.91113277 l 2.31934,1.4648437 c -0.89531,9.3588939 -1.3429,28.1170128 -1.34278,56.2744138 l 0,76.538087 c -1.2e-4,1.79041 0.16264,7.54805 0.48828,17.27295 0.3254,9.72495 0.67126,15.40122 1.0376,17.02881 0.36608,1.62761 0.93575,2.80762 1.70899,3.54004 0.77298,0.73243 1.66816,1.20036 2.68554,1.4038 1.01712,0.20346 5.3913,0.54933 13.12256,1.0376 l 1.09863,0.97656 0,5.12696 -0.97656,1.09863 c -10.17266,-0.65104 -19.97896,-0.97656 -29.41894,-0.97656 -8.70779,0 -18.47341,0.32552 -29.29688,0.97656 l -0.97656,-1.09863 0,-5.12696 0.97656,-0.97656 c 7.89379,-0.48827 12.34935,-0.85448 13.3667,-1.09863 1.01715,-0.24413 1.91233,-0.75276 2.68555,-1.52588 0.77301,-0.7731 1.30198,-1.95311 1.58691,-3.54004 0.28473,-1.5869 0.61025,-6.83592 0.97656,-15.74707 0.36611,-8.91109 0.54921,-15.6453 0.54932,-20.20264 l 0,-63.232417 -0.61035,-29.296875 c -0.24425,-11.311697 -0.59011,-17.781417 -1.0376,-19.40918 -0.44769,-1.6274423 -1.20046,-2.726074 -2.2583,-3.2958985 -1.05804,-0.5694973 -5.98154,-0.8543277 -14.77051,-0.8544922 l 0,5.3710937 -2.68554,1.098633 c -5.94084,-4.0688485 -12.12573,-6.1033517 -18.55469,-6.1035157 -4.8015,1.64e-4 -8.64671,0.9767256 -11.53565,2.9296875 -2.88905,1.9532842 -4.86251,4.8219332 -5.92041,8.6059572 -1.05799,3.784328 -1.58696,10.193013 -1.58691,19.226074 z"
         style="font-size: 250px;"
         id="path3121" />
    </g>
    <g
       transform="translate(-589.929, 384.23)"
       style="font-size: 10px; font-style: normal; font-variant: normal; font-weight: normal; font-stretch: normal; text-align: start; line-height: 125%; letter-spacing: 0px; word-spacing: 0px; text-anchor: start; fill: rgb(0, 0, 0); fill-opacity: 1; stroke: none; font-family: Palatino Linotype;"
       id="flowRoot3081">
      <path
         d="m 728.1084,319.51797 -58.34961,0 0,49.19434 c -5e-5,2.60421 0.18306,8.5653 0.54932,17.8833 0.36616,9.31805 0.71202,14.79087 1.03759,16.41846 0.32548,1.62761 0.87479,2.80762 1.64795,3.54004 0.77306,0.73243 2.03446,1.2614 3.78418,1.58691 1.74962,0.32553 6.32725,0.61036 13.73291,0.85449 l 0.97656,0.97656 0,5.12696 -0.97656,1.09863 c -3.66217,-0.24414 -8.03635,-0.46794 -13.12256,-0.67139 -5.08631,-0.20345 -11.00671,-0.30517 -17.76123,-0.30517 -8.78909,0 -18.59539,0.32552 -29.41894,0.97656 l -0.97656,-1.09863 0,-5.12696 0.97656,-0.97656 c 7.89386,-0.48827 12.36977,-0.85448 13.42773,-1.09863 1.05792,-0.24413 1.9531,-0.75276 2.68555,-1.52588 0.7324,-0.7731 1.24102,-1.95311 1.52588,-3.54004 0.2848,-1.5869 0.61032,-6.83592 0.97656,-15.74707 0.36619,-8.91109 0.54929,-15.6453 0.54932,-20.20264 l 0,-47.11914 -15.74707,0.8545 -1.09864,-0.97657 0,-3.05175 0.8545,-1.22071 15.99121,-8.17871 0,-7.32422 c -3e-5,-8.13789 0.36618,-14.30244 1.09863,-18.49365 0.73239,-4.19094 2.09551,-8.0565 4.08936,-11.59668 1.99378,-3.53989 5.47278,-8.0158 10.43701,-13.42773 4.96414,-5.41162 9.31798,-9.84684 13.06152,-13.30567 3.74343,-3.45848 6.99864,-5.77781 9.76563,-6.95801 2.76686,-1.17983 6.02206,-1.76983 9.76562,-1.77001 3.09237,1.8e-4 6.42896,0.61053 10.00977,1.83105 l -0.12207,20.01953 -2.80762,1.09863 c -4.55737,-4.06884 -9.84708,-6.10335 -15.86914,-6.10351 -4.23183,1.6e-4 -7.89394,0.875 -10.98633,2.62451 -3.0925,1.74983 -5.20838,4.59814 -6.34766,8.54492 -1.13937,3.94709 -1.70903,10.47785 -1.70898,19.59229 l 0,25.26855 58.34961,0 0,-7.32422 c -1.1e-4,-8.13789 0.3661,-14.30244 1.09863,-18.49365 0.73232,-4.19094 2.07509,-8.0565 4.02832,-11.59668 1.95301,-3.53989 5.43202,-8.0158 10.43701,-13.42773 5.00476,-5.41162 9.37894,-9.84684 13.12256,-13.30567 3.74335,-3.45848 6.99856,-5.77781 9.76563,-6.95801 2.76678,-1.17983 5.98129,-1.76983 9.64355,-1.77001 3.33643,1.8e-4 6.67302,0.61053 10.00977,1.83105 l 0,20.01953 -2.80762,1.09863 c -4.55745,-4.06884 -9.84716,-6.10335 -15.86914,-6.10351 -4.23191,1.6e-4 -7.89402,0.875 -10.98633,2.62451 -3.09258,1.74983 -5.20846,4.59814 -6.34766,8.54492 -1.13944,3.94709 -1.7091,10.47785 -1.70898,19.59229 l 0,25.26855 30.27344,0 c 10.33512,1.1e-4 18.63589,-0.5899 24.90234,-1.77002 6.26609,-1.1799 13.71237,-3.35682 22.33887,-6.53076 l 2.19726,1.58691 c -0.89538,10.66092 -1.34297,24.21071 -1.34277,40.64942 l 0,27.58789 c -2e-4,1.79041 0.1829,7.54805 0.54932,17.27295 0.366,9.72495 0.73221,15.40122 1.09863,17.02881 0.36601,1.62761 0.91532,2.80762 1.64795,3.54004 0.73221,0.73243 1.60705,1.20036 2.62451,1.4038 1.01704,0.20346 5.43192,0.54933 13.24463,1.0376 l 0.97656,0.97656 0,5.12696 -0.97656,1.09863 c -10.09136,-0.65104 -19.85697,-0.97656 -29.29687,-0.97656 -9.35891,0 -19.16522,0.32552 -29.41895,0.97656 l -0.97656,-1.09863 0,-5.12696 1.09863,-0.97656 c 7.81233,-0.48827 12.24755,-0.85448 13.30566,-1.09863 1.05777,-0.24413 1.95295,-0.75276 2.68555,-1.52588 0.73224,-0.7731 1.24087,-1.95311 1.52588,-3.54004 0.28465,-1.5869 0.61017,-6.83592 0.97656,-15.74707 0.36603,-8.91109 0.54914,-15.6453 0.54932,-20.20264 l 0,-24.04785 c -1.8e-4,-3.33651 -0.16294,-8.26001 -0.48828,-14.7705 -0.32571,-6.51033 -0.73261,-10.05036 -1.22071,-10.62012 -0.48846,-0.56957 -1.15984,-1.07819 -2.01416,-1.52588 -0.85467,-0.44749 -4.33367,-0.67129 -10.43701,-0.67139 l -11.84082,0.12207 -0.73242,3.54004 -1.2207,0.61035 -30.0293,0 0,49.19434 c -1.2e-4,2.60421 0.18298,8.5653 0.54932,17.8833 0.36608,9.31805 0.71195,14.79087 1.03759,16.41846 0.3254,1.62761 0.87471,2.80762 1.64795,3.54004 0.77299,0.73243 2.03438,1.2614 3.78418,1.58691 1.74954,0.32553 6.32718,0.61036 13.73291,0.85449 l 0.97657,0.97656 0,5.12696 -0.97657,1.09863 c -4.63881,-0.24414 -9.25713,-0.46794 -13.85498,-0.67139 -4.59811,-0.20345 -10.27437,-0.30517 -17.02881,-0.30517 -8.78916,0 -18.59547,0.32552 -29.41894,0.97656 l -0.97656,-1.09863 0,-5.12696 0.97656,-0.97656 c 7.89379,-0.48827 12.36969,-0.85448 13.42773,-1.09863 1.05785,-0.24413 1.95303,-0.75276 2.68555,-1.52588 0.73232,-0.7731 1.24095,-1.95311 1.52588,-3.54004 0.28473,-1.5869 0.61025,-6.83592 0.97656,-15.74707 0.36611,-8.91109 0.54921,-15.6453 0.54932,-20.20264 z m 87.52441,-75.19531 c 3.7433,1.7e-4 6.95781,1.3226 9.64356,3.96729 2.68534,2.64502 4.02811,5.92057 4.02832,9.82666 -2.1e-4,3.74364 -1.34298,6.95815 -4.02832,9.64355 -2.68575,2.68569 -5.90026,4.02846 -9.64356,4.02832 -3.82506,1.4e-4 -7.08026,-1.32228 -9.76562,-3.96728 -2.68573,-2.64471 -4.0285,-5.87957 -4.02832,-9.70459 -1.8e-4,-3.82471 1.34259,-7.07992 4.02832,-9.76563 2.68536,-2.68538 5.94056,-4.02815 9.76562,-4.02832 z"
         style="font-size: 250px;"
         id="path3109" />
    </g>
    <g
       transform="translate(-36.3655, 611.514)"
       style="font-size: 10px; font-style: normal; font-variant: normal; font-weight: normal; font-stretch: normal; text-align: start; line-height: 125%; letter-spacing: 0px; word-spacing: 0px; text-anchor: start; fill: rgb(0, 0, 0); fill-opacity: 1; stroke: none; font-family: Palatino Linotype;"
       id="flowRoot3089">
      <path
         d="m 453.72168,92.236723 -58.83789,0 0,49.194337 c -5e-5,2.60421 0.18306,8.5653 0.54932,17.8833 0.36616,9.31805 0.71202,14.79087 1.03759,16.41846 0.32548,1.62761 0.87479,2.80762 1.64795,3.54004 0.77306,0.73243 2.03446,1.2614 3.78418,1.58691 1.74962,0.32553 6.32725,0.61036 13.73291,0.85449 l 0.97656,0.97656 0,5.12696 -0.97656,1.09863 c -13.83469,-0.65104 -24.12927,-0.97656 -30.88379,-0.97656 -8.78909,0 -18.59539,0.32552 -29.41894,0.97656 l -0.97656,-1.09863 0,-5.12696 0.97656,-0.97656 c 7.89386,-0.48827 12.36977,-0.85448 13.42773,-1.09863 1.05792,-0.24413 1.9531,-0.75276 2.68555,-1.52588 0.7324,-0.7731 1.24102,-1.95311 1.52588,-3.54004 0.2848,-1.5869 0.61032,-6.83592 0.97656,-15.74707 0.36619,-8.91109 0.54929,-15.6453 0.54932,-20.20264 l 0,-47.119136 -15.74707,0.854492 -1.09864,-0.976562 0,-3.051758 0.8545,-1.220703 15.99121,-8.178711 0,-7.324219 c -3e-5,-8.137897 0.36618,-14.302442 1.09863,-18.493652 0.73239,-4.190943 2.09551,-8.056499 4.08936,-11.59668 1.99378,-3.53989 5.47278,-8.015797 10.43701,-13.427734 4.96414,-5.41162 9.31798,-9.846837 13.06152,-13.305665 3.74343,-3.458483 6.99864,-5.7778163 9.76563,-6.9580073 2.76686,-1.1798327 6.02206,-1.7698387 9.76562,-1.7700196 3.09237,1.809e-4 6.42896,0.6105319 10.00977,1.8310547 l -0.12207,20.0195312 -2.80762,1.098633 c -4.55737,-4.068848 -9.84708,-6.103352 -15.86914,-6.103516 -4.23183,1.64e-4 -7.89394,0.875001 -10.98633,2.624512 -3.0925,1.749834 -5.20838,4.598139 -6.34766,8.544922 -1.13937,3.947089 -1.70903,10.477844 -1.70898,19.592285 l 0,25.268555 58.83789,0 0,-7.324219 c -1.1e-4,-8.137897 0.34576,-14.302442 1.0376,-18.493652 0.69162,-4.190943 2.03439,-8.056499 4.02832,-11.59668 1.9937,-3.53989 5.49305,-8.036142 10.49804,-13.48877 5.00476,-5.452309 9.37894,-9.887526 13.12256,-13.305664 3.74335,-3.417793 7.01891,-5.7167813 9.82666,-6.8969723 2.80747,-1.1798327 5.87957,-1.7698387 9.21631,-1.7700196 3.01091,1.809e-4 7.32406,0.6105319 12.93945,1.8310547 l 0,7.2021482 c 14.72964,-1.708811 27.42494,-4.679185 38.08594,-8.9111325 l 2.19727,1.4648437 c -0.89539,9.3588938 -1.34298,28.1170128 -1.34278,56.2744138 l 0,76.538087 c -2e-4,1.79041 0.18291,7.54805 0.54932,17.27295 0.36601,9.72495 0.73222,15.40122 1.09863,17.02881 0.36601,1.62761 0.91532,2.80762 1.64795,3.54004 0.73222,0.73243 1.60705,1.20036 2.62451,1.4038 1.01705,0.20346 5.43192,0.54933 13.24463,1.0376 l 0.97657,0.97656 0,5.12696 -0.97657,1.09863 c -10.09136,-0.65104 -19.85697,-0.97656 -29.29687,-0.97656 -9.35891,0 -19.16522,0.32552 -29.41895,0.97656 l -0.97656,-1.09863 0,-5.12696 1.09863,-0.97656 c 7.81233,-0.48827 12.24755,-0.85448 13.30567,-1.09863 1.05776,-0.24413 1.95294,-0.75276 2.68554,-1.52588 0.73224,-0.7731 1.24087,-1.95311 1.52588,-3.54004 0.28465,-1.5869 0.61017,-6.83592 0.97657,-15.74707 0.36602,-8.91109 0.54913,-15.6453 0.54931,-20.20264 l 0,-63.232417 -0.48828,-29.296875 c -0.24432,-11.311697 -0.59019,-17.781417 -1.0376,-19.40918 -0.44777,-1.627442 -1.20054,-2.726074 -2.2583,-3.295898 -1.05812,-0.569498 -5.98162,-0.854328 -14.77051,-0.854493 l 0,5.371094 -2.68554,1.098633 c -6.02229,-4.068848 -12.20718,-6.103352 -18.55469,-6.103516 -4.80157,1.64e-4 -8.66713,0.976726 -11.59668,2.929688 -2.92982,1.953284 -4.90328,4.821933 -5.92041,8.605957 -1.01738,3.784328 -1.526,10.193013 -1.52588,19.226074 l 0,25.268555 12.93945,0 c 6.75442,1.08e-4 13.14276,-0.244033 19.16504,-0.732422 l 1.09864,1.342773 -2.0752,10.742188 -1.09863,1.220703 c -2.52294,-0.08128 -4.10985,-0.121975 -4.76074,-0.12207 l -15.99121,-0.122071 -9.27735,0 0,49.194337 c -1.2e-4,2.60421 0.16264,8.5653 0.48828,17.8833 0.3254,9.31805 0.65092,14.79087 0.97657,16.41846 0.32539,1.62761 0.8747,2.80762 1.64794,3.54004 0.77299,0.73243 2.03438,1.2614 3.78418,1.58691 1.74954,0.32553 6.32718,0.61036 13.73291,0.85449 l 1.09864,0.97656 0,5.12696 -1.09864,1.09863 c -13.83476,-0.65104 -24.12935,-0.97656 -30.88378,-0.97656 -9.35883,0 -19.12445,0.32552 -29.29688,0.97656 l -1.09863,-1.09863 0,-5.12696 1.09863,-0.97656 c 7.89379,-0.48827 12.34935,-0.85448 13.3667,-1.09863 1.01715,-0.24413 1.91233,-0.75276 2.68555,-1.52588 0.77301,-0.7731 1.30198,-1.95311 1.58691,-3.54004 0.28473,-1.5869 0.61025,-6.83592 0.97656,-15.74707 0.36611,-8.91109 0.54921,-15.6453 0.54932,-20.20264 z"
         style="font-size: 250px;"
         id="path3112" />
    </g>
    <g
       id="g3025"
       style="font-size:10px;font-style:normal;font-variant:normal;font-weight:normal;font-stretch:normal;text-align:start;line-height:125%;letter-spacing:0px;word-spacing:0px;text-anchor:start;fill:#000000;fill-opacity:1;stroke:none;font-family:Palatino Linotype"
       transform="translate(253.19955,610.21359)">
      <path
         id="path3027"
         style="font-size:250px"
         d="M 448.11615,103.06857 440.42927,103.09805 C 440.43904,91.020454 440.64647,86.978685 434.37765,82.719652 429.05487,79.103357 422.4387,76.186701 412.01106,76.186701 399.52258,76.186701 390.89655,79.761336 385.64451,86.193558 377.36928,96.328297 376.73704,111.72422 376.97909,117.43155 377.53004,130.42232 380.84072,153.75192 393.26923,164.63879 411.8642,180.92722 433.95794,174.69769 448.82725,167.27389 L 451.41299,171.19481 C 445.79484,180.36962 430.10419,189.35237 411.01329,188.53423 380.3331,187.21943 354.69106,170.17083 354.69106,129.8538 354.69106,100.11811 365.01237,86.13829 387.81806,74.208888 397.34779,69.223986 405.98095,63.560154 419.21463,63.691168 418.98582,37.811685 428.27646,30.778253 439.62324,24.668373 453.5119,17.189777 466.94238,25.809273 482.95624,36.250226 L 501.55847,26.581332 504.83455,28.874064 502.87872,73.683774 536.60148,73.835602 534.47415,86.091826 502.6955,86.088395 C 501.79034,106.29582 501.61907,123.47823 501.50798,140.71216 501.42659,153.33948 500.98052,164.38623 507.23566,169.50223 509.01292,170.95583 511.89141,171.72613 515.98476,171.84262 520.22737,171.96335 525.77505,171.34919 532.75435,168.18053 L 535.32397,171.78757 C 526.61115,180.03341 520.12067,187.24433 508.2679,187.39649 497.92199,187.5293 489.9606,184.47941 486.48129,179.5352 482.96935,174.54463 480.6428,167.65144 480.35089,159.54455 480.11837,153.08717 481.62987,145.85974 481.58255,138.21043 481.45536,117.64952 481.6867,103.61305 481.55866,87.295699 L 462.62478,87.225605 462.68319,81.841703 482.01263,73.350218 482.14615,47.526362 C 468.19735,41.840637 454.40192,35.856 443.7126,40.302675 435.95831,43.5284 427.723,50.721882 427.02098,64.813115 430.87654,64.642428 434.65131,65.118 438.37511,66.001437 442.66578,67.019362 446.88876,68.578786 451.08964,70.315028 z"
         inkscape:connector-curvature="0" />
    </g>
  </g>
</svg>
